<mxfile host="app.diagrams.net" modified="2024-02-19T15:45:07.199Z" agent="Mozilla/5.0 (Windows NT 10.0; Win64; x64) AppleWebKit/537.36 (KHTML, like Gecko) Chrome/96.0.4664.110 Safari/537.36 OPR/82.0.4227.44" etag="h3GpnhizfMje9hgdHeqK" version="23.1.5" type="github">
  <diagram id="C5RBs43oDa-KdzZeNtuy" name="Page-1">
    <mxGraphModel dx="753" dy="702" grid="1" gridSize="10" guides="1" tooltips="1" connect="1" arrows="1" fold="1" page="1" pageScale="1" pageWidth="827" pageHeight="1169" math="0" shadow="0">
      <root>
        <mxCell id="WIyWlLk6GJQsqaUBKTNV-0" />
        <mxCell id="WIyWlLk6GJQsqaUBKTNV-1" parent="WIyWlLk6GJQsqaUBKTNV-0" />
        <mxCell id="WIyWlLk6GJQsqaUBKTNV-6" value="DIRETOR_DE" style="rhombus;whiteSpace=wrap;html=1;shadow=0;fontFamily=Helvetica;fontSize=12;align=center;strokeWidth=1;spacing=6;spacingTop=-4;" parent="WIyWlLk6GJQsqaUBKTNV-1" vertex="1">
          <mxGeometry x="284" y="88" width="130" height="104" as="geometry" />
        </mxCell>
        <mxCell id="Jw9CXN5vHV3eCuYHOw5m-0" value="PROFESSOR" style="rounded=0;whiteSpace=wrap;html=1;" vertex="1" parent="WIyWlLk6GJQsqaUBKTNV-1">
          <mxGeometry x="30" y="110" width="120" height="60" as="geometry" />
        </mxCell>
        <mxCell id="Jw9CXN5vHV3eCuYHOw5m-1" value="" style="endArrow=none;html=1;rounded=0;exitX=1;exitY=0.5;exitDx=0;exitDy=0;entryX=0;entryY=0.5;entryDx=0;entryDy=0;" edge="1" parent="WIyWlLk6GJQsqaUBKTNV-1" source="Jw9CXN5vHV3eCuYHOw5m-0" target="WIyWlLk6GJQsqaUBKTNV-6">
          <mxGeometry width="50" height="50" relative="1" as="geometry">
            <mxPoint x="200" y="190" as="sourcePoint" />
            <mxPoint x="250" y="140" as="targetPoint" />
          </mxGeometry>
        </mxCell>
        <mxCell id="Jw9CXN5vHV3eCuYHOw5m-2" value="" style="endArrow=none;html=1;rounded=0;exitX=0.885;exitY=0.394;exitDx=0;exitDy=0;exitPerimeter=0;" edge="1" parent="WIyWlLk6GJQsqaUBKTNV-1" source="WIyWlLk6GJQsqaUBKTNV-6">
          <mxGeometry width="50" height="50" relative="1" as="geometry">
            <mxPoint x="414" y="130" as="sourcePoint" />
            <mxPoint x="550" y="130" as="targetPoint" />
          </mxGeometry>
        </mxCell>
        <mxCell id="Jw9CXN5vHV3eCuYHOw5m-3" value="" style="endArrow=none;html=1;rounded=0;exitX=1;exitY=0.5;exitDx=0;exitDy=0;" edge="1" parent="WIyWlLk6GJQsqaUBKTNV-1">
          <mxGeometry width="50" height="50" relative="1" as="geometry">
            <mxPoint x="400" y="150" as="sourcePoint" />
            <mxPoint x="550" y="150" as="targetPoint" />
          </mxGeometry>
        </mxCell>
        <mxCell id="Jw9CXN5vHV3eCuYHOw5m-4" value="DEPARTAMENTO" style="rounded=0;whiteSpace=wrap;html=1;" vertex="1" parent="WIyWlLk6GJQsqaUBKTNV-1">
          <mxGeometry x="550" y="110" width="120" height="60" as="geometry" />
        </mxCell>
        <mxCell id="Jw9CXN5vHV3eCuYHOw5m-5" value="1" style="text;html=1;align=center;verticalAlign=middle;whiteSpace=wrap;rounded=0;fontSize=21;" vertex="1" parent="WIyWlLk6GJQsqaUBKTNV-1">
          <mxGeometry x="190" y="110" width="60" height="30" as="geometry" />
        </mxCell>
        <mxCell id="Jw9CXN5vHV3eCuYHOw5m-7" value="1" style="text;html=1;align=center;verticalAlign=middle;whiteSpace=wrap;rounded=0;fontSize=21;" vertex="1" parent="WIyWlLk6GJQsqaUBKTNV-1">
          <mxGeometry x="450" y="100" width="60" height="30" as="geometry" />
        </mxCell>
        <mxCell id="Jw9CXN5vHV3eCuYHOw5m-8" value="TRABALHA_EM" style="rhombus;whiteSpace=wrap;html=1;shadow=0;fontFamily=Helvetica;fontSize=12;align=center;strokeWidth=1;spacing=6;spacingTop=-4;" vertex="1" parent="WIyWlLk6GJQsqaUBKTNV-1">
          <mxGeometry x="284" y="300" width="130" height="104" as="geometry" />
        </mxCell>
        <mxCell id="Jw9CXN5vHV3eCuYHOw5m-9" value="" style="endArrow=none;html=1;rounded=0;entryX=0.25;entryY=1;entryDx=0;entryDy=0;" edge="1" parent="WIyWlLk6GJQsqaUBKTNV-1" source="Jw9CXN5vHV3eCuYHOw5m-8" target="Jw9CXN5vHV3eCuYHOw5m-4">
          <mxGeometry width="50" height="50" relative="1" as="geometry">
            <mxPoint x="390" y="260" as="sourcePoint" />
            <mxPoint x="541" y="261" as="targetPoint" />
          </mxGeometry>
        </mxCell>
        <mxCell id="Jw9CXN5vHV3eCuYHOw5m-10" value="" style="endArrow=none;html=1;rounded=0;entryX=0.433;entryY=1.033;entryDx=0;entryDy=0;entryPerimeter=0;" edge="1" parent="WIyWlLk6GJQsqaUBKTNV-1" target="Jw9CXN5vHV3eCuYHOw5m-4">
          <mxGeometry width="50" height="50" relative="1" as="geometry">
            <mxPoint x="392" y="336" as="sourcePoint" />
            <mxPoint x="590" y="180" as="targetPoint" />
          </mxGeometry>
        </mxCell>
        <mxCell id="Jw9CXN5vHV3eCuYHOw5m-11" value="1" style="text;html=1;align=center;verticalAlign=middle;whiteSpace=wrap;rounded=0;fontSize=21;" vertex="1" parent="WIyWlLk6GJQsqaUBKTNV-1">
          <mxGeometry x="440" y="220" width="60" height="30" as="geometry" />
        </mxCell>
        <mxCell id="Jw9CXN5vHV3eCuYHOw5m-12" value="" style="endArrow=none;html=1;rounded=0;entryX=0.75;entryY=1;entryDx=0;entryDy=0;exitX=0.277;exitY=0.192;exitDx=0;exitDy=0;exitPerimeter=0;" edge="1" parent="WIyWlLk6GJQsqaUBKTNV-1" source="Jw9CXN5vHV3eCuYHOw5m-8" target="Jw9CXN5vHV3eCuYHOw5m-0">
          <mxGeometry width="50" height="50" relative="1" as="geometry">
            <mxPoint x="110" y="313" as="sourcePoint" />
            <mxPoint x="308" y="157" as="targetPoint" />
          </mxGeometry>
        </mxCell>
        <mxCell id="Jw9CXN5vHV3eCuYHOw5m-13" value="" style="endArrow=none;html=1;rounded=0;entryX=0.592;entryY=1.033;entryDx=0;entryDy=0;exitX=0.277;exitY=0.192;exitDx=0;exitDy=0;exitPerimeter=0;entryPerimeter=0;" edge="1" parent="WIyWlLk6GJQsqaUBKTNV-1" target="Jw9CXN5vHV3eCuYHOw5m-0">
          <mxGeometry width="50" height="50" relative="1" as="geometry">
            <mxPoint x="310" y="330" as="sourcePoint" />
            <mxPoint x="110" y="180" as="targetPoint" />
          </mxGeometry>
        </mxCell>
        <mxCell id="Jw9CXN5vHV3eCuYHOw5m-14" value="N" style="text;html=1;align=center;verticalAlign=middle;whiteSpace=wrap;rounded=0;fontSize=21;" vertex="1" parent="WIyWlLk6GJQsqaUBKTNV-1">
          <mxGeometry x="220" y="220" width="60" height="30" as="geometry" />
        </mxCell>
        <mxCell id="Jw9CXN5vHV3eCuYHOw5m-15" value="" style="endArrow=none;html=1;rounded=0;entryX=0.558;entryY=1.017;entryDx=0;entryDy=0;entryPerimeter=0;exitX=0.446;exitY=0.067;exitDx=0;exitDy=0;exitPerimeter=0;" edge="1" parent="WIyWlLk6GJQsqaUBKTNV-1" source="Jw9CXN5vHV3eCuYHOw5m-16" target="Jw9CXN5vHV3eCuYHOw5m-4">
          <mxGeometry width="50" height="50" relative="1" as="geometry">
            <mxPoint x="617" y="300" as="sourcePoint" />
            <mxPoint x="650" y="192" as="targetPoint" />
          </mxGeometry>
        </mxCell>
        <mxCell id="Jw9CXN5vHV3eCuYHOw5m-16" value="RESPONSAVEL_POR" style="rhombus;whiteSpace=wrap;html=1;shadow=0;fontFamily=Helvetica;fontSize=12;align=center;strokeWidth=1;spacing=6;spacingTop=-4;" vertex="1" parent="WIyWlLk6GJQsqaUBKTNV-1">
          <mxGeometry x="560" y="310" width="130" height="104" as="geometry" />
        </mxCell>
        <mxCell id="Jw9CXN5vHV3eCuYHOw5m-17" value="" style="endArrow=none;html=1;rounded=0;entryX=0.558;entryY=1.017;entryDx=0;entryDy=0;entryPerimeter=0;exitX=0.554;exitY=0.048;exitDx=0;exitDy=0;exitPerimeter=0;" edge="1" parent="WIyWlLk6GJQsqaUBKTNV-1" source="Jw9CXN5vHV3eCuYHOw5m-16">
          <mxGeometry width="50" height="50" relative="1" as="geometry">
            <mxPoint x="630" y="315" as="sourcePoint" />
            <mxPoint x="632" y="170" as="targetPoint" />
          </mxGeometry>
        </mxCell>
        <mxCell id="Jw9CXN5vHV3eCuYHOw5m-18" value="M" style="text;html=1;align=center;verticalAlign=middle;whiteSpace=wrap;rounded=0;fontSize=21;" vertex="1" parent="WIyWlLk6GJQsqaUBKTNV-1">
          <mxGeometry x="620" y="240" width="60" height="30" as="geometry" />
        </mxCell>
        <mxCell id="Jw9CXN5vHV3eCuYHOw5m-20" value="" style="endArrow=none;html=1;rounded=0;entryX=0.554;entryY=0.952;entryDx=0;entryDy=0;entryPerimeter=0;exitX=0.558;exitY=-0.017;exitDx=0;exitDy=0;exitPerimeter=0;" edge="1" parent="WIyWlLk6GJQsqaUBKTNV-1" source="Jw9CXN5vHV3eCuYHOw5m-22" target="Jw9CXN5vHV3eCuYHOw5m-16">
          <mxGeometry width="50" height="50" relative="1" as="geometry">
            <mxPoint x="632" y="510" as="sourcePoint" />
            <mxPoint x="630" y="430" as="targetPoint" />
          </mxGeometry>
        </mxCell>
        <mxCell id="Jw9CXN5vHV3eCuYHOw5m-21" value="" style="endArrow=none;html=1;rounded=0;entryX=0.438;entryY=0.952;entryDx=0;entryDy=0;entryPerimeter=0;exitX=0.433;exitY=0.017;exitDx=0;exitDy=0;exitPerimeter=0;" edge="1" parent="WIyWlLk6GJQsqaUBKTNV-1" source="Jw9CXN5vHV3eCuYHOw5m-22" target="Jw9CXN5vHV3eCuYHOw5m-16">
          <mxGeometry width="50" height="50" relative="1" as="geometry">
            <mxPoint x="617" y="510" as="sourcePoint" />
            <mxPoint x="619" y="420" as="targetPoint" />
          </mxGeometry>
        </mxCell>
        <mxCell id="Jw9CXN5vHV3eCuYHOw5m-22" value="CURSO" style="rounded=0;whiteSpace=wrap;html=1;" vertex="1" parent="WIyWlLk6GJQsqaUBKTNV-1">
          <mxGeometry x="565" y="520" width="120" height="60" as="geometry" />
        </mxCell>
        <mxCell id="Jw9CXN5vHV3eCuYHOw5m-24" value="INSCRITO_EM" style="rhombus;whiteSpace=wrap;html=1;shadow=0;fontFamily=Helvetica;fontSize=12;align=center;strokeWidth=1;spacing=6;spacingTop=-4;" vertex="1" parent="WIyWlLk6GJQsqaUBKTNV-1">
          <mxGeometry x="280" y="498" width="130" height="104" as="geometry" />
        </mxCell>
        <mxCell id="Jw9CXN5vHV3eCuYHOw5m-26" value="" style="endArrow=none;html=1;rounded=0;exitX=1;exitY=0.5;exitDx=0;exitDy=0;entryX=0;entryY=0.5;entryDx=0;entryDy=0;" edge="1" parent="WIyWlLk6GJQsqaUBKTNV-1" source="Jw9CXN5vHV3eCuYHOw5m-24" target="Jw9CXN5vHV3eCuYHOw5m-22">
          <mxGeometry width="50" height="50" relative="1" as="geometry">
            <mxPoint x="413" y="550" as="sourcePoint" />
            <mxPoint x="560" y="550" as="targetPoint" />
          </mxGeometry>
        </mxCell>
        <mxCell id="Jw9CXN5vHV3eCuYHOw5m-27" value="" style="endArrow=none;html=1;rounded=0;" edge="1" parent="WIyWlLk6GJQsqaUBKTNV-1">
          <mxGeometry width="50" height="50" relative="1" as="geometry">
            <mxPoint x="370" y="520" as="sourcePoint" />
            <mxPoint x="420" y="470" as="targetPoint" />
          </mxGeometry>
        </mxCell>
        <mxCell id="Jw9CXN5vHV3eCuYHOw5m-28" value="AnoConcl?" style="ellipse;whiteSpace=wrap;html=1;" vertex="1" parent="WIyWlLk6GJQsqaUBKTNV-1">
          <mxGeometry x="340" y="420" width="160" height="50" as="geometry" />
        </mxCell>
        <mxCell id="Jw9CXN5vHV3eCuYHOw5m-29" value="" style="endArrow=none;html=1;rounded=0;exitX=0;exitY=0;exitDx=0;exitDy=0;" edge="1" parent="WIyWlLk6GJQsqaUBKTNV-1" source="Jw9CXN5vHV3eCuYHOw5m-24">
          <mxGeometry width="50" height="50" relative="1" as="geometry">
            <mxPoint x="300" y="530" as="sourcePoint" />
            <mxPoint x="260" y="470" as="targetPoint" />
          </mxGeometry>
        </mxCell>
        <mxCell id="Jw9CXN5vHV3eCuYHOw5m-30" value="AnoInsc" style="ellipse;whiteSpace=wrap;html=1;" vertex="1" parent="WIyWlLk6GJQsqaUBKTNV-1">
          <mxGeometry x="170" y="420" width="160" height="50" as="geometry" />
        </mxCell>
        <mxCell id="Jw9CXN5vHV3eCuYHOw5m-31" value="" style="endArrow=none;html=1;rounded=0;entryX=0.1;entryY=0.404;entryDx=0;entryDy=0;entryPerimeter=0;" edge="1" parent="WIyWlLk6GJQsqaUBKTNV-1" target="Jw9CXN5vHV3eCuYHOw5m-24">
          <mxGeometry width="50" height="50" relative="1" as="geometry">
            <mxPoint x="141" y="540" as="sourcePoint" />
            <mxPoint x="284" y="540.0160000000001" as="targetPoint" />
          </mxGeometry>
        </mxCell>
        <mxCell id="Jw9CXN5vHV3eCuYHOw5m-32" value="" style="endArrow=none;html=1;rounded=0;entryX=0.077;entryY=0.596;entryDx=0;entryDy=0;entryPerimeter=0;" edge="1" parent="WIyWlLk6GJQsqaUBKTNV-1" target="Jw9CXN5vHV3eCuYHOw5m-24">
          <mxGeometry width="50" height="50" relative="1" as="geometry">
            <mxPoint x="140" y="560" as="sourcePoint" />
            <mxPoint x="240" y="570" as="targetPoint" />
          </mxGeometry>
        </mxCell>
        <mxCell id="Jw9CXN5vHV3eCuYHOw5m-34" value="ALUNO" style="rounded=0;whiteSpace=wrap;html=1;" vertex="1" parent="WIyWlLk6GJQsqaUBKTNV-1">
          <mxGeometry x="20" y="525" width="120" height="60" as="geometry" />
        </mxCell>
        <mxCell id="Jw9CXN5vHV3eCuYHOw5m-35" value="N" style="text;html=1;align=center;verticalAlign=middle;whiteSpace=wrap;rounded=0;fontSize=21;" vertex="1" parent="WIyWlLk6GJQsqaUBKTNV-1">
          <mxGeometry x="460" y="520" width="60" height="30" as="geometry" />
        </mxCell>
        <mxCell id="Jw9CXN5vHV3eCuYHOw5m-36" value="N" style="text;html=1;align=center;verticalAlign=middle;whiteSpace=wrap;rounded=0;fontSize=21;" vertex="1" parent="WIyWlLk6GJQsqaUBKTNV-1">
          <mxGeometry x="620" y="450" width="60" height="30" as="geometry" />
        </mxCell>
        <mxCell id="Jw9CXN5vHV3eCuYHOw5m-37" value="M" style="text;html=1;align=center;verticalAlign=middle;whiteSpace=wrap;rounded=0;fontSize=21;" vertex="1" parent="WIyWlLk6GJQsqaUBKTNV-1">
          <mxGeometry x="180" y="510" width="60" height="30" as="geometry" />
        </mxCell>
      </root>
    </mxGraphModel>
  </diagram>
</mxfile>
